<svg width="438" height="111" viewBox="0 0 438 111" fill="none" xmlns="http://www.w3.org/2000/svg">
<mask id="mask0_16_21" style="mask-type:luminance" maskUnits="userSpaceOnUse" x="0" y="0" width="438" height="111">
<path d="M437.743 0H0V110.619H437.743V0Z" fill="white"/>
</mask>
<g mask="url(#mask0_16_21)">
<path d="M128.458 37.305L108.286 23.381L105.314 47.903L114.091 43.882C115.508 48.596 116.238 53.506 116.238 58.447C116.238 72.989 109.852 87.03 98.717 96.971C97.743 97.838 97.092 98.418 96.655 98.801C96.595 98.835 96.539 98.869 96.482 98.908C91.8 102.004 88.78 98.353 87.976 97.178L70.39 70.611C72.053 70.331 74.245 69.778 76.44 68.681C80.646 66.578 85.663 62.107 85.663 52.752V47.576C85.663 47.394 85.455 29.435 67.52 29.435H43.636C38.873 29.435 31.788 32.589 31.788 41.281L31.726 75.256V94.632C31.726 96.584 31.065 97.866 29.763 98.447C27.906 99.28 25.07 98.62 23.168 96.915C11.909 86.835 5.70801 73.174 5.70801 58.447C5.70801 29.367 30.499 5.71002 60.973 5.71002C74.5 5.71002 87.516 10.421 97.626 18.978C98.829 19.995 100.631 19.847 101.649 18.644C102.667 17.44 102.517 15.639 101.313 14.619C90.175 5.19202 75.849 -0.000976562 60.972 -0.000976562C27.352 -0.000976562 -0.00299072 26.219 -0.00299072 58.447C-0.00299072 74.582 7.05501 90.154 19.357 101.169C22.947 104.384 28.184 105.409 32.089 103.661C35.485 102.146 37.434 98.852 37.434 94.632V75.261L37.496 42.801V41.281C37.496 35.672 42.209 35.166 43.634 35.145H67.518C79.5 35.145 79.941 46.315 79.951 47.576V52.752C79.951 64.734 68.78 65.173 67.518 65.183H55.957C47.265 65.183 44.111 72.268 44.111 77.032V107.763C44.111 109.338 45.388 110.618 46.965 110.618C48.541 110.618 49.819 109.338 49.819 107.763V77.032C49.819 76.403 49.992 70.893 55.957 70.893H63.729L83.211 100.331C84.999 103.03 88.596 105.82 92.995 105.82C94.571 105.82 96.249 105.463 97.985 104.613C98.577 104.469 99.254 104.112 100.013 103.446C100.485 103.035 101.265 102.344 102.517 101.228C114.863 90.207 121.944 74.615 121.944 58.446C121.944 52.682 121.048 46.959 119.321 41.486L128.458 37.305Z" fill="#183F30"/>
</g>
<mask id="mask1_16_21" style="mask-type:luminance" maskUnits="userSpaceOnUse" x="0" y="0" width="438" height="111">
<path d="M437.743 0H0V110.619H437.743V0Z" fill="white"/>
</mask>
<g mask="url(#mask1_16_21)">
<path d="M422.878 75.7586C422.878 77.4886 417.281 86.5496 405.674 86.2436C401.095 86.2436 396.002 83.5956 396.308 77.0806C396.308 73.0086 399.973 70.5646 401.401 69.8516C406.287 67.7146 416.058 67.8166 422.879 65.0676V75.7586H422.878ZM431.738 47.4566C431.432 42.1636 426.135 38.7016 419.315 37.1756C415.959 36.3596 412.291 36.1576 408.728 36.2576C405.165 36.5656 401.908 37.2766 399.161 38.6006C393.459 41.3496 391.017 45.9306 390.304 49.0856L389.998 53.7676H398.039C398.345 51.3266 398.753 44.4026 408.119 43.8936C414.025 43.2836 421.964 45.6226 422.779 49.3916V55.7026C422.779 58.5536 419.621 59.4716 418.503 59.7756C413.413 60.7926 408.426 59.9796 398.753 62.9306C393.357 64.5606 388.064 68.0206 387.557 76.8776C386.742 87.4646 394.374 94.0816 406.185 93.5746C414.124 93.2686 419.217 88.9916 423.185 85.8366C423.491 89.3996 426.136 92.4536 430.618 93.5746L437.744 92.6566V86.2446C434.894 87.0566 431.739 85.3266 431.739 83.2906V47.4566H431.738ZM325.661 91.2306H335.331L345.612 50.6116L356.406 91.2306H366.076L381.855 37.7856H372.287L361.292 79.3216L351.416 37.7856H340.829L330.445 79.4236L319.96 37.7856H310.393L325.661 91.2306ZM280.969 85.0206C276.083 85.0206 270.79 82.5796 268.348 76.8776C266.717 72.9076 265.598 68.9366 265.598 64.8646C265.598 60.8936 266.615 56.9246 267.737 52.9546C270.484 46.8466 276.084 44.4026 280.969 44.8106C285.855 44.8106 291.149 47.2536 293.593 52.9546C295.222 56.9246 296.343 60.8936 296.343 64.8646C296.343 68.9356 295.222 72.9066 293.593 76.8776C291.149 82.5786 285.855 85.0206 280.969 85.0206ZM261.015 83.0856C265.598 90.7216 273.438 93.5736 280.969 93.5736C288.605 93.5736 296.343 90.7206 300.923 83.0856C304.078 77.8966 305.098 71.3796 305.098 64.8646C305.098 58.4516 304.078 51.9366 300.923 46.7446C296.343 39.1106 288.605 36.2576 280.969 36.2576C273.438 36.2576 265.598 39.1106 261.015 46.7446C257.861 51.9366 256.843 58.4526 256.843 64.8646C256.843 71.3796 257.861 77.8966 261.015 83.0856ZM237.502 91.2306H246.054V17.0176H237.502V91.2306ZM187.519 60.3846C187.823 54.9886 190.675 49.1856 192.1 47.9646C194.95 43.9936 199.634 42.8756 203.807 43.2826C208.183 43.6886 211.952 45.6216 213.071 47.9646C214.395 49.2886 217.244 55.4986 216.94 60.3846H187.519ZM226.205 67.9176C226.205 58.0436 225.898 51.8346 220.197 43.8936C216.94 39.8206 210.932 36.7676 204.316 36.2576C197.7 35.7496 190.471 37.7856 184.668 44.3016C180.292 49.1856 178.152 57.0266 178.052 64.8646C177.95 72.7046 179.885 80.4406 183.448 85.0206C188.028 90.8236 195.257 93.5746 202.281 93.5746C209.509 93.5746 216.329 90.9266 220.3 85.6326C223.558 81.8656 224.372 78.2006 225.086 74.9436H216.432C215.312 77.8976 212.664 86.1426 202.181 86.1426C195.969 86.1426 192.51 82.6816 190.167 79.5236C187.012 74.7396 186.91 71.6876 187.214 67.9186L226.205 67.9176ZM147.105 91.2306H155.657V63.4376C155.657 54.0726 158.506 49.1856 164.614 46.4376C166.956 45.6216 169.705 45.2166 172.759 45.2166V36.2566H167.975C164.004 36.5646 159.016 40.0236 155.658 46.1316V37.7846H147.106V91.2306H147.105Z" fill="#183F30"/>
</g>
</svg>
