<svg width="225" height="194" viewBox="0 0 225 194" fill="none" xmlns="http://www.w3.org/2000/svg">
<path d="M224.168 65.1L188.964 40.8L183.779 83.592L199.096 76.579C201.566 84.805 202.844 93.37 202.844 101.996C202.844 127.373 191.699 151.875 172.269 169.22C170.57 170.739 169.433 171.745 168.671 172.415C168.568 172.473 168.466 172.535 168.367 172.603C160.199 178.006 154.928 171.634 153.525 169.582L122.838 123.221C125.74 122.735 129.564 121.77 133.395 119.856C140.736 116.184 149.488 108.382 149.488 92.059V83.025C149.488 82.71 149.125 51.369 117.828 51.369H76.15C67.84 51.369 55.474 56.874 55.474 72.042L55.366 131.327V165.14C55.366 168.542 54.214 170.782 51.937 171.8C48.698 173.251 43.752 172.098 40.433 169.123C20.784 151.533 9.965 127.692 9.965 101.996C9.965 51.249 53.228 9.964 106.403 9.964C130.009 9.964 152.724 18.188 170.365 33.119C172.465 34.893 175.609 34.635 177.386 32.534C179.163 30.433 178.904 27.291 176.803 25.512C157.363 9.06 132.363 0 106.403 0C47.732 0 0 45.755 0 101.996C0 130.15 12.315 157.324 33.788 176.548C40.052 182.155 49.189 183.945 56.004 180.897C61.93 178.25 65.331 172.507 65.331 165.14V131.336L65.439 74.693V72.041C65.439 62.252 73.665 61.369 76.15 61.332H117.828C138.74 61.332 139.505 80.822 139.524 83.024V92.058C139.524 112.967 120.03 113.731 117.828 113.75H97.656C82.488 113.75 76.983 126.113 76.983 134.424V188.051C76.983 190.802 79.213 193.034 81.966 193.034C84.716 193.034 86.946 190.802 86.946 188.051V134.425C86.946 133.328 87.246 123.715 97.655 123.715H111.214L145.215 175.082C148.334 179.796 154.612 184.666 162.288 184.666C165.038 184.666 167.968 184.042 170.996 182.56C172.031 182.305 173.211 181.683 174.538 180.522C175.36 179.808 176.725 178.6 178.904 176.654C200.451 157.421 212.808 130.209 212.808 101.997C212.808 91.936 211.244 81.951 208.228 72.397L224.168 65.1Z" fill="black"/>
</svg>
